<svg class="main-svg" xmlns="http://www.w3.org/2000/svg" xmlns:xlink="http://www.w3.org/1999/xlink" width="400" height="300" style="" viewBox="0 0 400 300"><rect x="0" y="0" width="400" height="300" style="fill: rgb(0, 0, 0); fill-opacity: 0;"/><defs id="defs-cb1817"><g class="clips"><clipPath id="clipcb1817xyplot" class="plotclip"><rect width="240" height="160"/></clipPath><clipPath class="axesclip" id="clipcb1817x"><rect x="80" y="0" width="240" height="300"/></clipPath><clipPath class="axesclip" id="clipcb1817y"><rect x="0" y="60" width="400" height="160"/></clipPath><clipPath class="axesclip" id="clipcb1817xy"><rect x="80" y="60" width="240" height="160"/></clipPath></g><g class="gradients"/><g class="patterns"/></defs><g class="bglayer"><rect class="bg" x="80" y="60" width="240" height="160" style="fill: rgb(229, 236, 246); fill-opacity: 1; stroke-width: 0;"/></g><g class="layer-below"><g class="imagelayer"/><g class="shapelayer"/></g><g class="cartesianlayer"><g class="subplot xy"><g class="layer-subplot"><g class="shapelayer"/><g class="imagelayer"/></g><g class="minor-gridlayer"><g class="x"/><g class="y"/></g><g class="gridlayer"><g class="x"><path class="xgrid crisp" transform="translate(110,0)" d="M0,60v160" style="stroke: rgb(255, 255, 255); stroke-opacity: 1; stroke-width: 1px;"/><path class="xgrid crisp" transform="translate(170,0)" d="M0,60v160" style="stroke: rgb(255, 255, 255); stroke-opacity: 1; stroke-width: 1px;"/><path class="xgrid crisp" transform="translate(230,0)" d="M0,60v160" style="stroke: rgb(255, 255, 255); stroke-opacity: 1; stroke-width: 1px;"/><path class="xgrid crisp" transform="translate(290,0)" d="M0,60v160" style="stroke: rgb(255, 255, 255); stroke-opacity: 1; stroke-width: 1px;"/></g><g class="y"><path class="ygrid crisp" transform="translate(0,155.8)" d="M80,0h240" style="stroke: rgb(255, 255, 255); stroke-opacity: 1; stroke-width: 1px;"/><path class="ygrid crisp" transform="translate(0,99.61)" d="M80,0h240" style="stroke: rgb(255, 255, 255); stroke-opacity: 1; stroke-width: 1px;"/></g></g><g class="zerolinelayer"><path class="yzl zl crisp" transform="translate(0,212)" d="M80,0h240" style="stroke: rgb(255, 255, 255); stroke-opacity: 1; stroke-width: 2px;"/></g><path class="xlines-below"/><path class="ylines-below"/><g class="overlines-below"/><g class="xaxislayer-below"/><g class="yaxislayer-below"/><g class="overaxes-below"/><g class="plot" transform="translate(80,60)" clip-path="url(#clipcb1817xyplot)"><g class="boxlayer mlayer"><g class="trace boxes" style="opacity: 1;"><path class="box" d="M15.3,152H44.7M15.3,152H44.7V152H15.3ZM30,152V152M30,152V152M22.65,152H37.35M22.65,152H37.35" style="vector-effect: none; stroke-width: 2px; stroke: rgb(99, 110, 250); stroke-opacity: 1; fill: rgb(99, 110, 250); fill-opacity: 0.5;"/><g class="points"><path class="point" transform="translate(30,147.98)" d="M3,0A3,3 0 1,1 0,-3A3,3 0 0,1 3,0Z" style="opacity: 1; stroke-width: 0px; fill: rgb(99, 110, 250); fill-opacity: 1;"/><path class="point" transform="translate(30,143.84)" d="M3,0A3,3 0 1,1 0,-3A3,3 0 0,1 3,0Z" style="opacity: 1; stroke-width: 0px; fill: rgb(99, 110, 250); fill-opacity: 1;"/></g></g><g class="trace boxes" style="opacity: 1;"><path class="box" d="M75.3,151H104.7M75.3,152H104.7V134.44H75.3ZM90,152V152M90,134.44V116M82.65,152H97.35M82.65,116H97.35" style="vector-effect: none; stroke-width: 2px; stroke: rgb(239, 85, 59); stroke-opacity: 1; fill: rgb(239, 85, 59); fill-opacity: 0.5;"/><g class="points"><path class="point" transform="translate(90,94.05)" d="M3,0A3,3 0 1,1 0,-3A3,3 0 0,1 3,0Z" style="opacity: 1; stroke-width: 0px; fill: rgb(239, 85, 59); fill-opacity: 1;"/></g></g><g class="trace boxes" style="opacity: 1;"><path class="box" d="M135.3,134.44H164.7M135.3,152H164.7V85.71H135.3ZM150,152V152M150,85.71V44.88M142.65,152H157.35M142.65,44.88H157.35" style="vector-effect: none; stroke-width: 2px; stroke: rgb(0, 204, 150); stroke-opacity: 1; fill: rgb(0, 204, 150); fill-opacity: 0.5;"/><g class="points"/></g><g class="trace boxes" style="opacity: 1;"><path class="box" d="M195.3,107.22H224.7M195.3,132.02H224.7V50.15H195.3ZM210,132.02V152M210,50.15V8M202.65,152H217.35M202.65,8H217.35" style="vector-effect: none; stroke-width: 2px; stroke: rgb(171, 99, 250); stroke-opacity: 1; fill: rgb(171, 99, 250); fill-opacity: 0.5;"/><g class="points"/></g></g></g><g class="overplot"/><path class="xlines-above crisp" d="M0,0" style="fill: none;"/><path class="ylines-above crisp" d="M0,0" style="fill: none;"/><g class="overlines-above"/><g class="xaxislayer-above"><g class="xtick"><text text-anchor="middle" x="0" y="233" transform="translate(110,0)" style="font-family: 'CMU Sans Serif'; font-size: 12px; fill: rgb(0, 0, 0); fill-opacity: 1; white-space: pre; opacity: 1;">0</text></g><g class="xtick"><text text-anchor="middle" x="0" y="233" transform="translate(170,0)" style="font-family: 'CMU Sans Serif'; font-size: 12px; fill: rgb(0, 0, 0); fill-opacity: 1; white-space: pre; opacity: 1;">0.25</text></g><g class="xtick"><text text-anchor="middle" x="0" y="233" transform="translate(230,0)" style="font-family: 'CMU Sans Serif'; font-size: 12px; fill: rgb(0, 0, 0); fill-opacity: 1; white-space: pre; opacity: 1;">0.5</text></g><g class="xtick"><text text-anchor="middle" x="0" y="233" transform="translate(290,0)" style="font-family: 'CMU Sans Serif'; font-size: 12px; fill: rgb(0, 0, 0); fill-opacity: 1; white-space: pre; opacity: 1;">0.75</text></g></g><g class="yaxislayer-above"><g class="ytick"><text text-anchor="end" x="79" y="4.199999999999999" transform="translate(0,212)" style="font-family: 'CMU Sans Serif'; font-size: 12px; fill: rgb(0, 0, 0); fill-opacity: 1; white-space: pre; opacity: 1;">0</text></g><g class="ytick"><text text-anchor="end" x="79" y="4.199999999999999" style="font-family: 'CMU Sans Serif'; font-size: 12px; fill: rgb(0, 0, 0); fill-opacity: 1; white-space: pre; opacity: 1;" transform="translate(0,155.8)">0.2</text></g><g class="ytick"><text text-anchor="end" x="79" y="4.199999999999999" style="font-family: 'CMU Sans Serif'; font-size: 12px; fill: rgb(0, 0, 0); fill-opacity: 1; white-space: pre; opacity: 1;" transform="translate(0,99.61)">0.4</text></g></g><g class="overaxes-above"/></g></g><g class="polarlayer"/><g class="smithlayer"/><g class="ternarylayer"/><g class="geolayer"/><g class="funnelarealayer"/><g class="pielayer"/><g class="iciclelayer"/><g class="treemaplayer"/><g class="sunburstlayer"/><g class="glimages"/><defs id="topdefs-cb1817"><g class="clips"/></defs><g class="layer-above"><g class="imagelayer"/><g class="shapelayer"/></g><g class="infolayer"><g class="g-gtitle"/><g class="g-xtitle"><text class="xtitle" x="200" y="260.3" text-anchor="middle" style="font-family: 'CMU Sans Serif'; font-size: 14px; fill: rgb(0, 0, 0); opacity: 1; font-weight: normal; white-space: pre;">% optimal genes</text></g><g class="g-ytitle"><text class="ytitle" transform="rotate(-90,39.35625,140)" x="39.35625" y="140" text-anchor="middle" style="font-family: 'CMU Sans Serif'; font-size: 14px; fill: rgb(0, 0, 0); opacity: 1; font-weight: normal; white-space: pre;">seed influence (more is better)</text></g></g></svg>