<svg class="main-svg" xmlns="http://www.w3.org/2000/svg" xmlns:xlink="http://www.w3.org/1999/xlink" width="1300" height="400" style="" viewBox="0 0 1300 400"><rect x="0" y="0" width="1300" height="400" style="fill: rgb(255, 255, 255); fill-opacity: 1;"/><defs id="defs-d31f20"><g class="clips"><clipPath id="clipd31f20xyplot" class="plotclip"><rect width="267.9" height="260"/></clipPath><clipPath id="clipd31f20x2y2plot" class="plotclip"><rect width="267.9" height="260"/></clipPath><clipPath id="clipd31f20x3y3plot" class="plotclip"><rect width="267.9" height="260"/></clipPath><clipPath id="clipd31f20x4y4plot" class="plotclip"><rect width="267.9" height="260"/></clipPath><clipPath class="axesclip" id="clipd31f20x"><rect x="80" y="0" width="267.9" height="400"/></clipPath><clipPath class="axesclip" id="clipd31f20y"><rect x="0" y="60" width="1300" height="260"/></clipPath><clipPath class="axesclip" id="clipd31f20xy"><rect x="80" y="60" width="267.9" height="260"/></clipPath><clipPath class="axesclip" id="clipd31f20y2"><rect x="0" y="60" width="1300" height="260"/></clipPath><clipPath class="axesclip" id="clipd31f20xy2"><rect x="80" y="60" width="267.9" height="260"/></clipPath><clipPath class="axesclip" id="clipd31f20y3"><rect x="0" y="60" width="1300" height="260"/></clipPath><clipPath class="axesclip" id="clipd31f20xy3"><rect x="80" y="60" width="267.9" height="260"/></clipPath><clipPath class="axesclip" id="clipd31f20y4"><rect x="0" y="60" width="1300" height="260"/></clipPath><clipPath class="axesclip" id="clipd31f20xy4"><rect x="80" y="60" width="267.9" height="260"/></clipPath><clipPath class="axesclip" id="clipd31f20x2"><rect x="370.7" y="0" width="267.9" height="400"/></clipPath><clipPath class="axesclip" id="clipd31f20x2y"><rect x="370.7" y="60" width="267.9" height="260"/></clipPath><clipPath class="axesclip" id="clipd31f20x2y2"><rect x="370.7" y="60" width="267.9" height="260"/></clipPath><clipPath class="axesclip" id="clipd31f20x2y3"><rect x="370.7" y="60" width="267.9" height="260"/></clipPath><clipPath class="axesclip" id="clipd31f20x2y4"><rect x="370.7" y="60" width="267.9" height="260"/></clipPath><clipPath class="axesclip" id="clipd31f20x3"><rect x="661.4" y="0" width="267.9" height="400"/></clipPath><clipPath class="axesclip" id="clipd31f20x3y"><rect x="661.4" y="60" width="267.9" height="260"/></clipPath><clipPath class="axesclip" id="clipd31f20x3y2"><rect x="661.4" y="60" width="267.9" height="260"/></clipPath><clipPath class="axesclip" id="clipd31f20x3y3"><rect x="661.4" y="60" width="267.9" height="260"/></clipPath><clipPath class="axesclip" id="clipd31f20x3y4"><rect x="661.4" y="60" width="267.9" height="260"/></clipPath><clipPath class="axesclip" id="clipd31f20x4"><rect x="952.0999999999999" y="0" width="267.9" height="400"/></clipPath><clipPath class="axesclip" id="clipd31f20x4y"><rect x="952.0999999999999" y="60" width="267.9" height="260"/></clipPath><clipPath class="axesclip" id="clipd31f20x4y2"><rect x="952.0999999999999" y="60" width="267.9" height="260"/></clipPath><clipPath class="axesclip" id="clipd31f20x4y3"><rect x="952.0999999999999" y="60" width="267.9" height="260"/></clipPath><clipPath class="axesclip" id="clipd31f20x4y4"><rect x="952.0999999999999" y="60" width="267.9" height="260"/></clipPath></g><g class="gradients"/><g class="patterns"/></defs><g class="bglayer"><rect class="bg" x="80" y="60" width="267.9" height="260" style="fill: rgb(229, 236, 246); fill-opacity: 1; stroke-width: 0;"/><rect class="bg" x="370.7" y="60" width="267.9" height="260" style="fill: rgb(229, 236, 246); fill-opacity: 1; stroke-width: 0;"/><rect class="bg" x="661.4" y="60" width="267.9" height="260" style="fill: rgb(229, 236, 246); fill-opacity: 1; stroke-width: 0;"/><rect class="bg" x="952.0999999999999" y="60" width="267.9" height="260" style="fill: rgb(229, 236, 246); fill-opacity: 1; stroke-width: 0;"/></g><g class="layer-below"><g class="imagelayer"/><g class="shapelayer"/></g><g class="cartesianlayer"><g class="subplot xy"><g class="layer-subplot"><g class="shapelayer"/><g class="imagelayer"/></g><g class="minor-gridlayer"><g class="x"/><g class="y"/></g><g class="gridlayer"><g class="x"><path class="xgrid crisp" transform="translate(113.49000000000001,0)" d="M0,60v260" style="stroke: rgb(255, 255, 255); stroke-opacity: 1; stroke-width: 1px;"/><path class="xgrid crisp" transform="translate(180.45999999999998,0)" d="M0,60v260" style="stroke: rgb(255, 255, 255); stroke-opacity: 1; stroke-width: 1px;"/><path class="xgrid crisp" transform="translate(247.44,0)" d="M0,60v260" style="stroke: rgb(255, 255, 255); stroke-opacity: 1; stroke-width: 1px;"/><path class="xgrid crisp" transform="translate(314.40999999999997,0)" d="M0,60v260" style="stroke: rgb(255, 255, 255); stroke-opacity: 1; stroke-width: 1px;"/></g><g class="y"><path class="ygrid crisp" transform="translate(0,267.05)" d="M80,0h267.9" style="stroke: rgb(255, 255, 255); stroke-opacity: 1; stroke-width: 1px;"/><path class="ygrid crisp" transform="translate(0,226.62)" d="M80,0h267.9" style="stroke: rgb(255, 255, 255); stroke-opacity: 1; stroke-width: 1px;"/><path class="ygrid crisp" transform="translate(0,186.2)" d="M80,0h267.9" style="stroke: rgb(255, 255, 255); stroke-opacity: 1; stroke-width: 1px;"/><path class="ygrid crisp" transform="translate(0,145.78)" d="M80,0h267.9" style="stroke: rgb(255, 255, 255); stroke-opacity: 1; stroke-width: 1px;"/><path class="ygrid crisp" transform="translate(0,105.36)" d="M80,0h267.9" style="stroke: rgb(255, 255, 255); stroke-opacity: 1; stroke-width: 1px;"/><path class="ygrid crisp" transform="translate(0,64.93)" d="M80,0h267.9" style="stroke: rgb(255, 255, 255); stroke-opacity: 1; stroke-width: 1px;"/></g></g><g class="zerolinelayer"><path class="yzl zl crisp" transform="translate(0,307.47)" d="M80,0h267.9" style="stroke: rgb(255, 255, 255); stroke-opacity: 1; stroke-width: 2px;"/></g><path class="xlines-below"/><path class="ylines-below"/><g class="overlines-below"/><g class="xaxislayer-below"/><g class="yaxislayer-below"/><g class="overaxes-below"/><g class="plot" transform="translate(80,60)" clip-path="url(#clipd31f20xyplot)"><g class="boxlayer mlayer"><g class="trace boxes" style="opacity: 1;"><path class="box" d="M17.08,163.7H49.9M17.08,207.03H49.9V126.52H17.08ZM33.49,207.03V219.95M33.49,126.52V29.62M25.28,219.95H41.69M25.28,29.62H41.69" style="vector-effect: none; stroke-width: 2px; stroke: rgb(99, 110, 250); stroke-opacity: 1; fill: rgb(99, 110, 250); fill-opacity: 0.5;"/><g class="points"/></g><g class="trace boxes" style="opacity: 1;"><path class="box" d="M84.05,206.2H116.87M84.05,221.11H116.87V181.55H84.05ZM100.46,221.11V238.13M100.46,181.55V134.05M92.26,238.13H108.67M92.26,134.05H108.67" style="vector-effect: none; stroke-width: 2px; stroke: rgb(239, 85, 59); stroke-opacity: 1; fill: rgb(239, 85, 59); fill-opacity: 0.5;"/><g class="points"><path class="point" transform="translate(100.46,66.59)" d="M3,0A3,3 0 1,1 0,-3A3,3 0 0,1 3,0Z" style="opacity: 1; stroke-width: 0px; fill: rgb(239, 85, 59); fill-opacity: 1;"/><path class="point" transform="translate(100.46,56.36)" d="M3,0A3,3 0 1,1 0,-3A3,3 0 0,1 3,0Z" style="opacity: 1; stroke-width: 0px; fill: rgb(239, 85, 59); fill-opacity: 1;"/></g></g><g class="trace boxes" style="opacity: 1;"><path class="box" d="M151.03,226.78H183.85M151.03,233.23H183.85V211.22H151.03ZM167.44,233.23V242.79M167.44,211.22V178.44M159.23,242.79H175.64M159.23,178.44H175.64" style="vector-effect: none; stroke-width: 2px; stroke: rgb(0, 204, 150); stroke-opacity: 1; fill: rgb(0, 204, 150); fill-opacity: 0.5;"/><g class="points"/></g><g class="trace boxes" style="opacity: 1;"><path class="box" d="M218,244.48H250.82M218,246.07H250.82V239.23H218ZM234.41,246.07V247M234.41,239.23V234.32M226.21,247H242.62M226.21,234.32H242.62" style="vector-effect: none; stroke-width: 2px; stroke: rgb(171, 99, 250); stroke-opacity: 1; fill: rgb(171, 99, 250); fill-opacity: 0.5;"/><g class="points"><path class="point" transform="translate(234.41,214.39)" d="M3,0A3,3 0 1,1 0,-3A3,3 0 0,1 3,0Z" style="opacity: 1; stroke-width: 0px; fill: rgb(171, 99, 250); fill-opacity: 1;"/><path class="point" transform="translate(234.41,213.94)" d="M3,0A3,3 0 1,1 0,-3A3,3 0 0,1 3,0Z" style="opacity: 1; stroke-width: 0px; fill: rgb(171, 99, 250); fill-opacity: 1;"/><path class="point" transform="translate(234.41,212.55)" d="M3,0A3,3 0 1,1 0,-3A3,3 0 0,1 3,0Z" style="opacity: 1; stroke-width: 0px; fill: rgb(171, 99, 250); fill-opacity: 1;"/><path class="point" transform="translate(234.41,207.03)" d="M3,0A3,3 0 1,1 0,-3A3,3 0 0,1 3,0Z" style="opacity: 1; stroke-width: 0px; fill: rgb(171, 99, 250); fill-opacity: 1;"/></g></g></g></g><g class="overplot"/><path class="xlines-above crisp" d="M0,0" style="fill: none;"/><path class="ylines-above crisp" d="M0,0" style="fill: none;"/><g class="overlines-above"/><g class="xaxislayer-above"><g class="xtick"><text text-anchor="middle" x="0" y="333" transform="translate(113.49000000000001,0)" style="font-family: 'Open Sans', verdana, arial, sans-serif; font-size: 12px; fill: rgb(42, 63, 95); fill-opacity: 1; white-space: pre; opacity: 1;">0</text></g><g class="xtick"><text text-anchor="middle" x="0" y="333" transform="translate(180.45999999999998,0)" style="font-family: 'Open Sans', verdana, arial, sans-serif; font-size: 12px; fill: rgb(42, 63, 95); fill-opacity: 1; white-space: pre; opacity: 1;">0.25</text></g><g class="xtick"><text text-anchor="middle" x="0" y="333" transform="translate(247.44,0)" style="font-family: 'Open Sans', verdana, arial, sans-serif; font-size: 12px; fill: rgb(42, 63, 95); fill-opacity: 1; white-space: pre; opacity: 1;">0.5</text></g><g class="xtick"><text text-anchor="middle" x="0" y="333" transform="translate(314.40999999999997,0)" style="font-family: 'Open Sans', verdana, arial, sans-serif; font-size: 12px; fill: rgb(42, 63, 95); fill-opacity: 1; white-space: pre; opacity: 1;">0.75</text></g></g><g class="yaxislayer-above"><g class="ytick"><text text-anchor="end" x="79" y="4.199999999999999" transform="translate(0,307.47)" style="font-family: 'Open Sans', verdana, arial, sans-serif; font-size: 12px; fill: rgb(42, 63, 95); fill-opacity: 1; white-space: pre; opacity: 1;">0</text></g><g class="ytick"><text text-anchor="end" x="79" y="4.199999999999999" style="font-family: 'Open Sans', verdana, arial, sans-serif; font-size: 12px; fill: rgb(42, 63, 95); fill-opacity: 1; white-space: pre; opacity: 1;" transform="translate(0,267.05)">0.1</text></g><g class="ytick"><text text-anchor="end" x="79" y="4.199999999999999" style="font-family: 'Open Sans', verdana, arial, sans-serif; font-size: 12px; fill: rgb(42, 63, 95); fill-opacity: 1; white-space: pre; opacity: 1;" transform="translate(0,226.62)">0.2</text></g><g class="ytick"><text text-anchor="end" x="79" y="4.199999999999999" style="font-family: 'Open Sans', verdana, arial, sans-serif; font-size: 12px; fill: rgb(42, 63, 95); fill-opacity: 1; white-space: pre; opacity: 1;" transform="translate(0,186.2)">0.3</text></g><g class="ytick"><text text-anchor="end" x="79" y="4.199999999999999" style="font-family: 'Open Sans', verdana, arial, sans-serif; font-size: 12px; fill: rgb(42, 63, 95); fill-opacity: 1; white-space: pre; opacity: 1;" transform="translate(0,145.78)">0.4</text></g><g class="ytick"><text text-anchor="end" x="79" y="4.199999999999999" style="font-family: 'Open Sans', verdana, arial, sans-serif; font-size: 12px; fill: rgb(42, 63, 95); fill-opacity: 1; white-space: pre; opacity: 1;" transform="translate(0,105.36)">0.5</text></g><g class="ytick"><text text-anchor="end" x="79" y="4.199999999999999" style="font-family: 'Open Sans', verdana, arial, sans-serif; font-size: 12px; fill: rgb(42, 63, 95); fill-opacity: 1; white-space: pre; opacity: 1;" transform="translate(0,64.93)">0.6</text></g></g><g class="overaxes-above"/></g><g class="subplot x2y2"><g class="layer-subplot"><g class="shapelayer"/><g class="imagelayer"/></g><g class="minor-gridlayer"><g class="x2"/><g class="y2"/></g><g class="gridlayer"><g class="x2"><path class="x2grid crisp" transform="translate(404.19,0)" d="M0,60v260" style="stroke: rgb(255, 255, 255); stroke-opacity: 1; stroke-width: 1px;"/><path class="x2grid crisp" transform="translate(471.15999999999997,0)" d="M0,60v260" style="stroke: rgb(255, 255, 255); stroke-opacity: 1; stroke-width: 1px;"/><path class="x2grid crisp" transform="translate(538.14,0)" d="M0,60v260" style="stroke: rgb(255, 255, 255); stroke-opacity: 1; stroke-width: 1px;"/><path class="x2grid crisp" transform="translate(605.11,0)" d="M0,60v260" style="stroke: rgb(255, 255, 255); stroke-opacity: 1; stroke-width: 1px;"/></g><g class="y2"><path class="y2grid crisp" transform="translate(0,267.05)" d="M370.7,0h267.9" style="stroke: rgb(255, 255, 255); stroke-opacity: 1; stroke-width: 1px;"/><path class="y2grid crisp" transform="translate(0,226.62)" d="M370.7,0h267.9" style="stroke: rgb(255, 255, 255); stroke-opacity: 1; stroke-width: 1px;"/><path class="y2grid crisp" transform="translate(0,186.2)" d="M370.7,0h267.9" style="stroke: rgb(255, 255, 255); stroke-opacity: 1; stroke-width: 1px;"/><path class="y2grid crisp" transform="translate(0,145.78)" d="M370.7,0h267.9" style="stroke: rgb(255, 255, 255); stroke-opacity: 1; stroke-width: 1px;"/><path class="y2grid crisp" transform="translate(0,105.36)" d="M370.7,0h267.9" style="stroke: rgb(255, 255, 255); stroke-opacity: 1; stroke-width: 1px;"/><path class="y2grid crisp" transform="translate(0,64.93)" d="M370.7,0h267.9" style="stroke: rgb(255, 255, 255); stroke-opacity: 1; stroke-width: 1px;"/></g></g><g class="zerolinelayer"><path class="y2zl zl crisp" transform="translate(0,307.47)" d="M370.7,0h267.9" style="stroke: rgb(255, 255, 255); stroke-opacity: 1; stroke-width: 2px;"/></g><path class="xlines-below"/><path class="ylines-below"/><g class="overlines-below"/><g class="xaxislayer-below"/><g class="yaxislayer-below"/><g class="overaxes-below"/><g class="plot" transform="translate(370.7,60)" clip-path="url(#clipd31f20x2y2plot)"><g class="boxlayer mlayer"><g class="trace boxes" style="opacity: 1;"><path class="box" d="M17.08,188.71H49.9M17.08,207.83H49.9V165.27H17.08ZM33.49,207.83V220.08M33.49,165.27V105.6M25.28,220.08H41.69M25.28,105.6H41.69" style="vector-effect: none; stroke-width: 2px; stroke: rgb(99, 110, 250); stroke-opacity: 1; fill: rgb(99, 110, 250); fill-opacity: 0.5;"/><g class="points"/></g><g class="trace boxes" style="opacity: 1;"><path class="box" d="M84.05,197.83H116.87M84.05,218.92H116.87V161.21H84.05ZM100.46,218.92V236.5M100.46,161.21V85.37M92.26,236.5H108.67M92.26,85.37H108.67" style="vector-effect: none; stroke-width: 2px; stroke: rgb(239, 85, 59); stroke-opacity: 1; fill: rgb(239, 85, 59); fill-opacity: 0.5;"/><g class="points"/></g><g class="trace boxes" style="opacity: 1;"><path class="box" d="M151.03,208.38H183.85M151.03,227.82H183.85V172.59H151.03ZM167.44,227.82V237.4M167.44,172.59V128.4M159.23,237.4H175.64M159.23,128.4H175.64" style="vector-effect: none; stroke-width: 2px; stroke: rgb(0, 204, 150); stroke-opacity: 1; fill: rgb(0, 204, 150); fill-opacity: 0.5;"/><g class="points"><path class="point" transform="translate(167.44,88.67)" d="M3,0A3,3 0 1,1 0,-3A3,3 0 0,1 3,0Z" style="opacity: 1; stroke-width: 0px; fill: rgb(0, 204, 150); fill-opacity: 1;"/></g></g><g class="trace boxes" style="opacity: 1;"><path class="box" d="M218,214.13H250.82M218,233.5H250.82V185.03H218ZM234.41,233.5V244.82M234.41,185.03V112.75M226.21,244.82H242.62M226.21,112.75H242.62" style="vector-effect: none; stroke-width: 2px; stroke: rgb(171, 99, 250); stroke-opacity: 1; fill: rgb(171, 99, 250); fill-opacity: 0.5;"/><g class="points"/></g></g></g><g class="overplot"/><path class="xlines-above crisp" d="M0,0" style="fill: none;"/><path class="ylines-above crisp" d="M0,0" style="fill: none;"/><g class="overlines-above"/><g class="xaxislayer-above"><g class="x2tick"><text text-anchor="middle" x="0" y="333" transform="translate(404.19,0)" style="font-family: 'Open Sans', verdana, arial, sans-serif; font-size: 12px; fill: rgb(42, 63, 95); fill-opacity: 1; white-space: pre; opacity: 1;">0</text></g><g class="x2tick"><text text-anchor="middle" x="0" y="333" transform="translate(471.15999999999997,0)" style="font-family: 'Open Sans', verdana, arial, sans-serif; font-size: 12px; fill: rgb(42, 63, 95); fill-opacity: 1; white-space: pre; opacity: 1;">0.25</text></g><g class="x2tick"><text text-anchor="middle" x="0" y="333" transform="translate(538.14,0)" style="font-family: 'Open Sans', verdana, arial, sans-serif; font-size: 12px; fill: rgb(42, 63, 95); fill-opacity: 1; white-space: pre; opacity: 1;">0.5</text></g><g class="x2tick"><text text-anchor="middle" x="0" y="333" transform="translate(605.11,0)" style="font-family: 'Open Sans', verdana, arial, sans-serif; font-size: 12px; fill: rgb(42, 63, 95); fill-opacity: 1; white-space: pre; opacity: 1;">0.75</text></g></g><g class="yaxislayer-above"/><g class="overaxes-above"/></g><g class="subplot x3y3"><g class="layer-subplot"><g class="shapelayer"/><g class="imagelayer"/></g><g class="minor-gridlayer"><g class="x3"/><g class="y3"/></g><g class="gridlayer"><g class="x3"><path class="x3grid crisp" transform="translate(694.89,0)" d="M0,60v260" style="stroke: rgb(255, 255, 255); stroke-opacity: 1; stroke-width: 1px;"/><path class="x3grid crisp" transform="translate(761.86,0)" d="M0,60v260" style="stroke: rgb(255, 255, 255); stroke-opacity: 1; stroke-width: 1px;"/><path class="x3grid crisp" transform="translate(828.8399999999999,0)" d="M0,60v260" style="stroke: rgb(255, 255, 255); stroke-opacity: 1; stroke-width: 1px;"/><path class="x3grid crisp" transform="translate(895.81,0)" d="M0,60v260" style="stroke: rgb(255, 255, 255); stroke-opacity: 1; stroke-width: 1px;"/></g><g class="y3"><path class="y3grid crisp" transform="translate(0,267.05)" d="M661.4,0h267.9" style="stroke: rgb(255, 255, 255); stroke-opacity: 1; stroke-width: 1px;"/><path class="y3grid crisp" transform="translate(0,226.62)" d="M661.4,0h267.9" style="stroke: rgb(255, 255, 255); stroke-opacity: 1; stroke-width: 1px;"/><path class="y3grid crisp" transform="translate(0,186.2)" d="M661.4,0h267.9" style="stroke: rgb(255, 255, 255); stroke-opacity: 1; stroke-width: 1px;"/><path class="y3grid crisp" transform="translate(0,145.78)" d="M661.4,0h267.9" style="stroke: rgb(255, 255, 255); stroke-opacity: 1; stroke-width: 1px;"/><path class="y3grid crisp" transform="translate(0,105.36)" d="M661.4,0h267.9" style="stroke: rgb(255, 255, 255); stroke-opacity: 1; stroke-width: 1px;"/><path class="y3grid crisp" transform="translate(0,64.93)" d="M661.4,0h267.9" style="stroke: rgb(255, 255, 255); stroke-opacity: 1; stroke-width: 1px;"/></g></g><g class="zerolinelayer"><path class="y3zl zl crisp" transform="translate(0,307.47)" d="M661.4,0h267.9" style="stroke: rgb(255, 255, 255); stroke-opacity: 1; stroke-width: 2px;"/></g><path class="xlines-below"/><path class="ylines-below"/><g class="overlines-below"/><g class="xaxislayer-below"/><g class="yaxislayer-below"/><g class="overaxes-below"/><g class="plot" transform="translate(661.4,60)" clip-path="url(#clipd31f20x3y3plot)"><g class="boxlayer mlayer"><g class="trace boxes" style="opacity: 1;"><path class="box" d="M17.08,197.95H49.9M17.08,214.31H49.9V171.7H17.08ZM33.49,214.31V225.6M33.49,171.7V121.67M25.28,225.6H41.69M25.28,121.67H41.69" style="vector-effect: none; stroke-width: 2px; stroke: rgb(99, 110, 250); stroke-opacity: 1; fill: rgb(99, 110, 250); fill-opacity: 0.5;"/><g class="points"/></g><g class="trace boxes" style="opacity: 1;"><path class="box" d="M84.05,198.25H116.87M84.05,212.99H116.87V175.82H84.05ZM100.46,212.99V237.11M100.46,175.82V121.67M92.26,237.11H108.67M92.26,121.67H108.67" style="vector-effect: none; stroke-width: 2px; stroke: rgb(239, 85, 59); stroke-opacity: 1; fill: rgb(239, 85, 59); fill-opacity: 0.5;"/><g class="points"><path class="point" transform="translate(100.46,106.81)" d="M3,0A3,3 0 1,1 0,-3A3,3 0 0,1 3,0Z" style="opacity: 1; stroke-width: 0px; fill: rgb(239, 85, 59); fill-opacity: 1;"/></g></g><g class="trace boxes" style="opacity: 1;"><path class="box" d="M151.03,189.42H183.85M151.03,210.51H183.85V162.27H151.03ZM167.44,210.51V231.53M167.44,162.27V98.97M159.23,231.53H175.64M159.23,98.97H175.64" style="vector-effect: none; stroke-width: 2px; stroke: rgb(0, 204, 150); stroke-opacity: 1; fill: rgb(0, 204, 150); fill-opacity: 0.5;"/><g class="points"><path class="point" transform="translate(167.44,70.19)" d="M3,0A3,3 0 1,1 0,-3A3,3 0 0,1 3,0Z" style="opacity: 1; stroke-width: 0px; fill: rgb(0, 204, 150); fill-opacity: 1;"/><path class="point" transform="translate(167.44,13)" d="M3,0A3,3 0 1,1 0,-3A3,3 0 0,1 3,0Z" style="opacity: 1; stroke-width: 0px; fill: rgb(0, 204, 150); fill-opacity: 1;"/></g></g><g class="trace boxes" style="opacity: 1;"><path class="box" d="M218,209.84H250.82M218,223.1H250.82V183.01H218ZM234.41,223.1V242.12M234.41,183.01V145.46M226.21,242.12H242.62M226.21,145.46H242.62" style="vector-effect: none; stroke-width: 2px; stroke: rgb(171, 99, 250); stroke-opacity: 1; fill: rgb(171, 99, 250); fill-opacity: 0.5;"/><g class="points"><path class="point" transform="translate(234.41,121.67)" d="M3,0A3,3 0 1,1 0,-3A3,3 0 0,1 3,0Z" style="opacity: 1; stroke-width: 0px; fill: rgb(171, 99, 250); fill-opacity: 1;"/><path class="point" transform="translate(234.41,95.21)" d="M3,0A3,3 0 1,1 0,-3A3,3 0 0,1 3,0Z" style="opacity: 1; stroke-width: 0px; fill: rgb(171, 99, 250); fill-opacity: 1;"/></g></g></g></g><g class="overplot"/><path class="xlines-above crisp" d="M0,0" style="fill: none;"/><path class="ylines-above crisp" d="M0,0" style="fill: none;"/><g class="overlines-above"/><g class="xaxislayer-above"><g class="x3tick"><text text-anchor="middle" x="0" y="333" transform="translate(694.89,0)" style="font-family: 'Open Sans', verdana, arial, sans-serif; font-size: 12px; fill: rgb(42, 63, 95); fill-opacity: 1; white-space: pre; opacity: 1;">0</text></g><g class="x3tick"><text text-anchor="middle" x="0" y="333" transform="translate(761.86,0)" style="font-family: 'Open Sans', verdana, arial, sans-serif; font-size: 12px; fill: rgb(42, 63, 95); fill-opacity: 1; white-space: pre; opacity: 1;">0.25</text></g><g class="x3tick"><text text-anchor="middle" x="0" y="333" transform="translate(828.8399999999999,0)" style="font-family: 'Open Sans', verdana, arial, sans-serif; font-size: 12px; fill: rgb(42, 63, 95); fill-opacity: 1; white-space: pre; opacity: 1;">0.5</text></g><g class="x3tick"><text text-anchor="middle" x="0" y="333" transform="translate(895.81,0)" style="font-family: 'Open Sans', verdana, arial, sans-serif; font-size: 12px; fill: rgb(42, 63, 95); fill-opacity: 1; white-space: pre; opacity: 1;">0.75</text></g></g><g class="yaxislayer-above"/><g class="overaxes-above"/></g><g class="subplot x4y4"><g class="layer-subplot"><g class="shapelayer"/><g class="imagelayer"/></g><g class="minor-gridlayer"><g class="x4"/><g class="y4"/></g><g class="gridlayer"><g class="x4"><path class="x4grid crisp" transform="translate(985.5899999999999,0)" d="M0,60v260" style="stroke: rgb(255, 255, 255); stroke-opacity: 1; stroke-width: 1px;"/><path class="x4grid crisp" transform="translate(1052.56,0)" d="M0,60v260" style="stroke: rgb(255, 255, 255); stroke-opacity: 1; stroke-width: 1px;"/><path class="x4grid crisp" transform="translate(1119.54,0)" d="M0,60v260" style="stroke: rgb(255, 255, 255); stroke-opacity: 1; stroke-width: 1px;"/><path class="x4grid crisp" transform="translate(1186.51,0)" d="M0,60v260" style="stroke: rgb(255, 255, 255); stroke-opacity: 1; stroke-width: 1px;"/></g><g class="y4"><path class="y4grid crisp" transform="translate(0,267.05)" d="M952.0999999999999,0h267.9" style="stroke: rgb(255, 255, 255); stroke-opacity: 1; stroke-width: 1px;"/><path class="y4grid crisp" transform="translate(0,226.62)" d="M952.0999999999999,0h267.9" style="stroke: rgb(255, 255, 255); stroke-opacity: 1; stroke-width: 1px;"/><path class="y4grid crisp" transform="translate(0,186.2)" d="M952.0999999999999,0h267.9" style="stroke: rgb(255, 255, 255); stroke-opacity: 1; stroke-width: 1px;"/><path class="y4grid crisp" transform="translate(0,145.78)" d="M952.0999999999999,0h267.9" style="stroke: rgb(255, 255, 255); stroke-opacity: 1; stroke-width: 1px;"/><path class="y4grid crisp" transform="translate(0,105.36)" d="M952.0999999999999,0h267.9" style="stroke: rgb(255, 255, 255); stroke-opacity: 1; stroke-width: 1px;"/><path class="y4grid crisp" transform="translate(0,64.93)" d="M952.0999999999999,0h267.9" style="stroke: rgb(255, 255, 255); stroke-opacity: 1; stroke-width: 1px;"/></g></g><g class="zerolinelayer"><path class="y4zl zl crisp" transform="translate(0,307.47)" d="M952.0999999999999,0h267.9" style="stroke: rgb(255, 255, 255); stroke-opacity: 1; stroke-width: 2px;"/></g><path class="xlines-below"/><path class="ylines-below"/><g class="overlines-below"/><g class="xaxislayer-below"/><g class="yaxislayer-below"/><g class="overaxes-below"/><g class="plot" transform="translate(952.0999999999999,60)" clip-path="url(#clipd31f20x4y4plot)"><g class="boxlayer mlayer"><g class="trace boxes" style="opacity: 1;"><path class="box" d="M17.08,191.66H49.9M17.08,214.85H49.9V156.23H17.08ZM33.49,214.85V235.25M33.49,156.23V79.28M25.28,235.25H41.69M25.28,79.28H41.69" style="vector-effect: none; stroke-width: 2px; stroke: rgb(99, 110, 250); stroke-opacity: 1; fill: rgb(99, 110, 250); fill-opacity: 0.5;"/><g class="points"><path class="point" transform="translate(33.49,51.37)" d="M3,0A3,3 0 1,1 0,-3A3,3 0 0,1 3,0Z" style="opacity: 1; stroke-width: 0px; fill: rgb(99, 110, 250); fill-opacity: 1;"/></g></g><g class="trace boxes" style="opacity: 1;"><path class="box" d="M84.05,191.66H116.87M84.05,212.05H116.87V162.14H84.05ZM100.46,212.05V221.82M100.46,162.14V121.67M92.26,221.82H108.67M92.26,121.67H108.67" style="vector-effect: none; stroke-width: 2px; stroke: rgb(239, 85, 59); stroke-opacity: 1; fill: rgb(239, 85, 59); fill-opacity: 0.5;"/><g class="points"><path class="point" transform="translate(100.46,79.28)" d="M3,0A3,3 0 1,1 0,-3A3,3 0 0,1 3,0Z" style="opacity: 1; stroke-width: 0px; fill: rgb(239, 85, 59); fill-opacity: 1;"/><path class="point" transform="translate(100.46,51.37)" d="M3,0A3,3 0 1,1 0,-3A3,3 0 0,1 3,0Z" style="opacity: 1; stroke-width: 0px; fill: rgb(239, 85, 59); fill-opacity: 1;"/></g></g><g class="trace boxes" style="opacity: 1;"><path class="box" d="M151.03,184.05H183.85M151.03,214.85H183.85V161.63H151.03ZM167.44,214.85V223.76M167.44,161.63V121.67M159.23,223.76H175.64M159.23,121.67H175.64" style="vector-effect: none; stroke-width: 2px; stroke: rgb(0, 204, 150); stroke-opacity: 1; fill: rgb(0, 204, 150); fill-opacity: 0.5;"/><g class="points"><path class="point" transform="translate(167.44,79.28)" d="M3,0A3,3 0 1,1 0,-3A3,3 0 0,1 3,0Z" style="opacity: 1; stroke-width: 0px; fill: rgb(0, 204, 150); fill-opacity: 1;"/><path class="point" transform="translate(167.44,51.37)" d="M3,0A3,3 0 1,1 0,-3A3,3 0 0,1 3,0Z" style="opacity: 1; stroke-width: 0px; fill: rgb(0, 204, 150); fill-opacity: 1;"/></g></g><g class="trace boxes" style="opacity: 1;"><path class="box" d="M218,197.88H250.82M218,214.4H250.82V164.43H218ZM234.41,214.4V237.7M234.41,164.43V121.67M226.21,237.7H242.62M226.21,121.67H242.62" style="vector-effect: none; stroke-width: 2px; stroke: rgb(171, 99, 250); stroke-opacity: 1; fill: rgb(171, 99, 250); fill-opacity: 0.5;"/><g class="points"><path class="point" transform="translate(234.41,79.28)" d="M3,0A3,3 0 1,1 0,-3A3,3 0 0,1 3,0Z" style="opacity: 1; stroke-width: 0px; fill: rgb(171, 99, 250); fill-opacity: 1;"/><path class="point" transform="translate(234.41,51.37)" d="M3,0A3,3 0 1,1 0,-3A3,3 0 0,1 3,0Z" style="opacity: 1; stroke-width: 0px; fill: rgb(171, 99, 250); fill-opacity: 1;"/></g></g></g></g><g class="overplot"/><path class="xlines-above crisp" d="M0,0" style="fill: none;"/><path class="ylines-above crisp" d="M0,0" style="fill: none;"/><g class="overlines-above"/><g class="xaxislayer-above"><g class="x4tick"><text text-anchor="middle" x="0" y="333" transform="translate(985.5899999999999,0)" style="font-family: 'Open Sans', verdana, arial, sans-serif; font-size: 12px; fill: rgb(42, 63, 95); fill-opacity: 1; white-space: pre; opacity: 1;">0</text></g><g class="x4tick"><text text-anchor="middle" x="0" y="333" transform="translate(1052.56,0)" style="font-family: 'Open Sans', verdana, arial, sans-serif; font-size: 12px; fill: rgb(42, 63, 95); fill-opacity: 1; white-space: pre; opacity: 1;">0.25</text></g><g class="x4tick"><text text-anchor="middle" x="0" y="333" transform="translate(1119.54,0)" style="font-family: 'Open Sans', verdana, arial, sans-serif; font-size: 12px; fill: rgb(42, 63, 95); fill-opacity: 1; white-space: pre; opacity: 1;">0.5</text></g><g class="x4tick"><text text-anchor="middle" x="0" y="333" transform="translate(1186.51,0)" style="font-family: 'Open Sans', verdana, arial, sans-serif; font-size: 12px; fill: rgb(42, 63, 95); fill-opacity: 1; white-space: pre; opacity: 1;">0.75</text></g></g><g class="yaxislayer-above"/><g class="overaxes-above"/></g></g><g class="polarlayer"/><g class="smithlayer"/><g class="ternarylayer"/><g class="geolayer"/><g class="funnelarealayer"/><g class="pielayer"/><g class="iciclelayer"/><g class="treemaplayer"/><g class="sunburstlayer"/><g class="glimages"/><defs id="topdefs-d31f20"><g class="clips"/></defs><g class="layer-above"><g class="imagelayer"/><g class="shapelayer"/></g><g class="infolayer"><g class="g-gtitle"/><g class="g-xtitle"><text class="xtitle" x="213.95" y="359.8" text-anchor="middle" style="font-family: 'Open Sans', verdana, arial, sans-serif; font-size: 14px; fill: rgb(42, 63, 95); opacity: 1; font-weight: normal; white-space: pre;">% optimal genes</text></g><g class="g-x2title"><text class="x2title" x="504.65" y="359.8" text-anchor="middle" style="font-family: 'Open Sans', verdana, arial, sans-serif; font-size: 14px; fill: rgb(42, 63, 95); opacity: 1; font-weight: normal; white-space: pre;">% optimal genes</text></g><g class="g-x3title"><text class="x3title" x="795.3499999999999" y="359.8" text-anchor="middle" style="font-family: 'Open Sans', verdana, arial, sans-serif; font-size: 14px; fill: rgb(42, 63, 95); opacity: 1; font-weight: normal; white-space: pre;">% optimal genes</text></g><g class="g-x4title"><text class="x4title" x="1086.05" y="359.8" text-anchor="middle" style="font-family: 'Open Sans', verdana, arial, sans-serif; font-size: 14px; fill: rgb(42, 63, 95); opacity: 1; font-weight: normal; white-space: pre;">% optimal genes</text></g><g class="g-ytitle"><text class="ytitle" transform="rotate(-90,35.075,190)" x="35.075" y="190" text-anchor="middle" style="font-family: 'Open Sans', verdana, arial, sans-serif; font-size: 14px; fill: rgb(42, 63, 95); opacity: 1; font-weight: normal; white-space: pre;">min_f</text></g><g class="g-y2title"/><g class="g-y3title"/><g class="g-y4title"/><g class="annotation" data-index="0" style="opacity: 1;"><g class="annotation-text-g" transform="rotate(0,213.95,50.5)"><g class="cursor-pointer" transform="translate(156,41)"><rect class="bg" x="0.5" y="0.5" width="115" height="18" style="stroke-width: 1px; stroke: rgb(0, 0, 0); stroke-opacity: 0; fill: rgb(0, 0, 0); fill-opacity: 0;"/><text class="annotation-text" text-anchor="middle" x="57.890625" y="14" style="font-family: 'Open Sans', verdana, arial, sans-serif; font-size: 12px; fill: rgb(42, 63, 95); fill-opacity: 1; white-space: pre;">seed_quality=best</text></g></g></g><g class="annotation" data-index="1" style="opacity: 1;"><g class="annotation-text-g" transform="rotate(0,504.65,50.49999999999999)"><g class="cursor-pointer" transform="translate(418,41)"><rect class="bg" x="0.5" y="0.5" width="172" height="18" style="stroke-width: 1px; stroke: rgb(0, 0, 0); stroke-opacity: 0; fill: rgb(0, 0, 0); fill-opacity: 0;"/><text class="annotation-text" text-anchor="middle" x="86.46875" y="14" style="font-family: 'Open Sans', verdana, arial, sans-serif; font-size: 12px; fill: rgb(42, 63, 95); fill-opacity: 1; white-space: pre;">seed_quality=lower quartile</text></g></g></g><g class="annotation" data-index="2" style="opacity: 1;"><g class="annotation-text-g" transform="rotate(0,795.3499999999999,50.5)"><g class="cursor-pointer" transform="translate(728,41)"><rect class="bg" x="0.5" y="0.5" width="134" height="18" style="stroke-width: 1px; stroke: rgb(0, 0, 0); stroke-opacity: 0; fill: rgb(0, 0, 0); fill-opacity: 0;"/><text class="annotation-text" text-anchor="middle" x="67.28125" y="14" style="font-family: 'Open Sans', verdana, arial, sans-serif; font-size: 12px; fill: rgb(42, 63, 95); fill-opacity: 1; white-space: pre;">seed_quality=median</text></g></g></g><g class="annotation" data-index="3" style="opacity: 1;"><g class="annotation-text-g" transform="rotate(0,1086.0499999999997,50.49999999999999)"><g class="cursor-pointer" transform="translate(999,41)"><rect class="bg" x="0.5" y="0.5" width="174" height="18" style="stroke-width: 1px; stroke: rgb(0, 0, 0); stroke-opacity: 0; fill: rgb(0, 0, 0); fill-opacity: 0;"/><text class="annotation-text" text-anchor="middle" x="87.546875" y="14" style="font-family: 'Open Sans', verdana, arial, sans-serif; font-size: 12px; fill: rgb(42, 63, 95); fill-opacity: 1; white-space: pre;">seed_quality=upper quartile</text></g></g></g></g></svg>