<svg class="main-svg" xmlns="http://www.w3.org/2000/svg" xmlns:xlink="http://www.w3.org/1999/xlink" width="500" height="350" style="" viewBox="0 0 500 350"><rect x="0" y="0" width="500" height="350" style="fill: rgb(0, 0, 0); fill-opacity: 0;"/><defs id="defs-a2c3a1"><g class="clips"><clipPath id="clipa2c3a1xyplot" class="plotclip"><rect width="340" height="188"/></clipPath><clipPath class="axesclip" id="clipa2c3a1x"><rect x="80" y="0" width="340" height="350"/></clipPath><clipPath class="axesclip" id="clipa2c3a1y"><rect x="0" y="60" width="500" height="188"/></clipPath><clipPath class="axesclip" id="clipa2c3a1xy"><rect x="80" y="60" width="340" height="188"/></clipPath></g><g class="gradients"/><g class="patterns"/></defs><g class="bglayer"><rect class="bg" x="80" y="60" width="340" height="188" style="fill: rgb(229, 236, 246); fill-opacity: 1; stroke-width: 0;"/></g><g class="layer-below"><g class="imagelayer"/><g class="shapelayer"/></g><g class="cartesianlayer"><g class="subplot xy"><g class="layer-subplot"><g class="shapelayer"/><g class="imagelayer"/></g><g class="minor-gridlayer"><g class="x"/><g class="y"/></g><g class="gridlayer"><g class="x"/><g class="y"><path class="ygrid crisp" transform="translate(0,175.64)" d="M80,0h340" style="stroke: rgb(255, 255, 255); stroke-opacity: 1; stroke-width: 1px;"/><path class="ygrid crisp" transform="translate(0,112.68)" d="M80,0h340" style="stroke: rgb(255, 255, 255); stroke-opacity: 1; stroke-width: 1px;"/></g></g><g class="zerolinelayer"><path class="yzl zl crisp" transform="translate(0,238.6)" d="M80,0h340" style="stroke: rgb(255, 255, 255); stroke-opacity: 1; stroke-width: 2px;"/></g><path class="xlines-below"/><path class="ylines-below"/><g class="overlines-below"/><g class="xaxislayer-below"/><g class="yaxislayer-below"/><g class="overaxes-below"/><g class="plot" transform="translate(80,60)" clip-path="url(#clipa2c3a1xyplot)"><g class="boxlayer mlayer"><g class="trace boxes" style="opacity: 1;"><path class="box" d="M4.34,162.86H12.67M4.34,178.6H12.67V107.77H4.34ZM8.5,178.6V178.6M8.5,107.77V9.4M6.42,178.6H10.58M6.42,9.4H10.58" style="vector-effect: none; stroke-width: 2px; stroke: rgb(99, 110, 250); stroke-opacity: 1; fill: rgb(99, 110, 250); fill-opacity: 0.5;"/><path class="box" d="M21.34,178.6H29.67M21.34,178.6H29.67V178.6H21.34ZM25.5,178.6V178.6M25.5,178.6V178.6M23.42,178.6H27.58M23.42,178.6H27.58" style="vector-effect: none; stroke-width: 2px; stroke: rgb(99, 110, 250); stroke-opacity: 1; fill: rgb(99, 110, 250); fill-opacity: 0.5;"/><path class="box" d="M38.34,178.6H46.67M38.34,178.6H46.67V178.6H38.34ZM42.5,178.6V178.6M42.5,178.6V178.6M40.42,178.6H44.58M40.42,178.6H44.58" style="vector-effect: none; stroke-width: 2px; stroke: rgb(99, 110, 250); stroke-opacity: 1; fill: rgb(99, 110, 250); fill-opacity: 0.5;"/><path class="box" d="M55.34,168.64H63.67M55.34,177.48H63.67V151.78H55.34ZM59.5,177.48V178.6M59.5,151.78V133.53M57.42,178.6H61.58M57.42,133.53H61.58" style="vector-effect: none; stroke-width: 2px; stroke: rgb(99, 110, 250); stroke-opacity: 1; fill: rgb(99, 110, 250); fill-opacity: 0.5;"/><path class="box" d="M72.34,178.6H80.67M72.34,178.6H80.67V178.6H72.34ZM76.5,178.6V178.6M76.5,178.6V178.6M74.42,178.6H78.58M74.42,178.6H78.58" style="vector-effect: none; stroke-width: 2px; stroke: rgb(99, 110, 250); stroke-opacity: 1; fill: rgb(99, 110, 250); fill-opacity: 0.5;"/><path class="box" d="M89.34,178.6H97.67M89.34,178.6H97.67V178.6H89.34ZM93.5,178.6V178.6M93.5,178.6V178.6M91.42,178.6H95.58M91.42,178.6H95.58" style="vector-effect: none; stroke-width: 2px; stroke: rgb(99, 110, 250); stroke-opacity: 1; fill: rgb(99, 110, 250); fill-opacity: 0.5;"/><path class="box" d="M106.34,178.6H114.67M106.34,178.6H114.67V178.6H106.34ZM110.5,178.6V178.6M110.5,178.6V178.6M108.42,178.6H112.58M108.42,178.6H112.58" style="vector-effect: none; stroke-width: 2px; stroke: rgb(99, 110, 250); stroke-opacity: 1; fill: rgb(99, 110, 250); fill-opacity: 0.5;"/><path class="box" d="M123.34,178.6H131.67M123.34,178.6H131.67V178.6H123.34ZM127.5,178.6V178.6M127.5,178.6V178.6M125.42,178.6H129.58M125.42,178.6H129.58" style="vector-effect: none; stroke-width: 2px; stroke: rgb(99, 110, 250); stroke-opacity: 1; fill: rgb(99, 110, 250); fill-opacity: 0.5;"/><path class="box" d="M140.34,178.6H148.67M140.34,178.6H148.67V178.6H140.34ZM144.5,178.6V178.6M144.5,178.6V178.6M142.42,178.6H146.58M142.42,178.6H146.58" style="vector-effect: none; stroke-width: 2px; stroke: rgb(99, 110, 250); stroke-opacity: 1; fill: rgb(99, 110, 250); fill-opacity: 0.5;"/><path class="box" d="M157.34,178.6H165.67M157.34,178.6H165.67V178.6H157.34ZM161.5,178.6V178.6M161.5,178.6V178.6M159.42,178.6H163.58M159.42,178.6H163.58" style="vector-effect: none; stroke-width: 2px; stroke: rgb(99, 110, 250); stroke-opacity: 1; fill: rgb(99, 110, 250); fill-opacity: 0.5;"/><path class="box" d="M174.34,178.6H182.67M174.34,178.6H182.67V178.6H174.34ZM178.5,178.6V178.6M178.5,178.6V178.6M176.42,178.6H180.58M176.42,178.6H180.58" style="vector-effect: none; stroke-width: 2px; stroke: rgb(99, 110, 250); stroke-opacity: 1; fill: rgb(99, 110, 250); fill-opacity: 0.5;"/><path class="box" d="M191.34,178.6H199.67M191.34,178.6H199.67V178.6H191.34ZM195.5,178.6V178.6M195.5,178.6V178.6M193.42,178.6H197.58M193.42,178.6H197.58" style="vector-effect: none; stroke-width: 2px; stroke: rgb(99, 110, 250); stroke-opacity: 1; fill: rgb(99, 110, 250); fill-opacity: 0.5;"/><path class="box" d="M208.34,178.6H216.67M208.34,178.6H216.67V178.6H208.34ZM212.5,178.6V178.6M212.5,178.6V178.6M210.42,178.6H214.58M210.42,178.6H214.58" style="vector-effect: none; stroke-width: 2px; stroke: rgb(99, 110, 250); stroke-opacity: 1; fill: rgb(99, 110, 250); fill-opacity: 0.5;"/><path class="box" d="M225.34,178.6H233.67M225.34,178.6H233.67V178.6H225.34ZM229.5,178.6V178.6M229.5,178.6V178.6M227.42,178.6H231.58M227.42,178.6H231.58" style="vector-effect: none; stroke-width: 2px; stroke: rgb(99, 110, 250); stroke-opacity: 1; fill: rgb(99, 110, 250); fill-opacity: 0.5;"/><path class="box" d="M242.34,177.6H250.67M242.34,178.6H250.67V172.64H242.34ZM246.5,178.6V178.6M246.5,172.64V164.16M244.42,178.6H248.58M244.42,164.16H248.58" style="vector-effect: none; stroke-width: 2px; stroke: rgb(99, 110, 250); stroke-opacity: 1; fill: rgb(99, 110, 250); fill-opacity: 0.5;"/><path class="box" d="M259.34,177.6H267.66M259.34,178.6H267.66V173.54H259.34ZM263.5,178.6V178.6M263.5,173.54V173.37M261.42,178.6H265.58M261.42,173.37H265.58" style="vector-effect: none; stroke-width: 2px; stroke: rgb(99, 110, 250); stroke-opacity: 1; fill: rgb(99, 110, 250); fill-opacity: 0.5;"/><path class="box" d="M276.34,177.6H284.67M276.34,178.6H284.67V175.62H276.34ZM280.5,178.6V178.6M280.5,175.62V172.1M278.42,178.6H282.58M278.42,172.1H282.58" style="vector-effect: none; stroke-width: 2px; stroke: rgb(99, 110, 250); stroke-opacity: 1; fill: rgb(99, 110, 250); fill-opacity: 0.5;"/><path class="box" d="M293.33,168.94H301.67M293.33,178.6H301.67V151.83H293.33ZM297.5,178.6V178.6M297.5,151.83V129.27M295.42,178.6H299.58M295.42,129.27H299.58" style="vector-effect: none; stroke-width: 2px; stroke: rgb(99, 110, 250); stroke-opacity: 1; fill: rgb(99, 110, 250); fill-opacity: 0.5;"/><path class="box" d="M310.33,178.6H318.67M310.33,178.6H318.67V178.6H310.33ZM314.5,178.6V178.6M314.5,178.6V178.6M312.42,178.6H316.58M312.42,178.6H316.58" style="vector-effect: none; stroke-width: 2px; stroke: rgb(99, 110, 250); stroke-opacity: 1; fill: rgb(99, 110, 250); fill-opacity: 0.5;"/><path class="box" d="M327.33,178.6H335.67M327.33,178.6H335.67V178.6H327.33ZM331.5,178.6V178.6M331.5,178.6V178.6M329.42,178.6H333.58M329.42,178.6H333.58" style="vector-effect: none; stroke-width: 2px; stroke: rgb(99, 110, 250); stroke-opacity: 1; fill: rgb(99, 110, 250); fill-opacity: 0.5;"/><g class="points"/><g class="points"><path class="point" transform="translate(25.5,172.62)" d="M3,0A3,3 0 1,1 0,-3A3,3 0 0,1 3,0Z" style="opacity: 1; stroke-width: 0px; fill: rgb(99, 110, 250); fill-opacity: 1;"/><path class="point" transform="translate(25.5,172.44)" d="M3,0A3,3 0 1,1 0,-3A3,3 0 0,1 3,0Z" style="opacity: 1; stroke-width: 0px; fill: rgb(99, 110, 250); fill-opacity: 1;"/><path class="point" transform="translate(25.5,167.32)" d="M3,0A3,3 0 1,1 0,-3A3,3 0 0,1 3,0Z" style="opacity: 1; stroke-width: 0px; fill: rgb(99, 110, 250); fill-opacity: 1;"/><path class="point" transform="translate(25.5,164.71)" d="M3,0A3,3 0 1,1 0,-3A3,3 0 0,1 3,0Z" style="opacity: 1; stroke-width: 0px; fill: rgb(99, 110, 250); fill-opacity: 1;"/><path class="point" transform="translate(25.5,159.18)" d="M3,0A3,3 0 1,1 0,-3A3,3 0 0,1 3,0Z" style="opacity: 1; stroke-width: 0px; fill: rgb(99, 110, 250); fill-opacity: 1;"/><path class="point" transform="translate(25.5,145.14)" d="M3,0A3,3 0 1,1 0,-3A3,3 0 0,1 3,0Z" style="opacity: 1; stroke-width: 0px; fill: rgb(99, 110, 250); fill-opacity: 1;"/></g><g class="points"><path class="point" transform="translate(42.5,175.23)" d="M3,0A3,3 0 1,1 0,-3A3,3 0 0,1 3,0Z" style="opacity: 1; stroke-width: 0px; fill: rgb(99, 110, 250); fill-opacity: 1;"/></g><g class="points"/><g class="points"/><g class="points"><path class="point" transform="translate(93.5,175.13)" d="M3,0A3,3 0 1,1 0,-3A3,3 0 0,1 3,0Z" style="opacity: 1; stroke-width: 0px; fill: rgb(99, 110, 250); fill-opacity: 1;"/><path class="point" transform="translate(93.5,171.27)" d="M3,0A3,3 0 1,1 0,-3A3,3 0 0,1 3,0Z" style="opacity: 1; stroke-width: 0px; fill: rgb(99, 110, 250); fill-opacity: 1;"/><path class="point" transform="translate(93.5,165.71)" d="M3,0A3,3 0 1,1 0,-3A3,3 0 0,1 3,0Z" style="opacity: 1; stroke-width: 0px; fill: rgb(99, 110, 250); fill-opacity: 1;"/><path class="point" transform="translate(93.5,164.03)" d="M3,0A3,3 0 1,1 0,-3A3,3 0 0,1 3,0Z" style="opacity: 1; stroke-width: 0px; fill: rgb(99, 110, 250); fill-opacity: 1;"/><path class="point" transform="translate(93.5,160.88)" d="M3,0A3,3 0 1,1 0,-3A3,3 0 0,1 3,0Z" style="opacity: 1; stroke-width: 0px; fill: rgb(99, 110, 250); fill-opacity: 1;"/><path class="point" transform="translate(93.5,160.19)" d="M3,0A3,3 0 1,1 0,-3A3,3 0 0,1 3,0Z" style="opacity: 1; stroke-width: 0px; fill: rgb(99, 110, 250); fill-opacity: 1;"/></g><g class="points"/><g class="points"/><g class="points"><path class="point" transform="translate(144.5,165.06)" d="M3,0A3,3 0 1,1 0,-3A3,3 0 0,1 3,0Z" style="opacity: 1; stroke-width: 0px; fill: rgb(99, 110, 250); fill-opacity: 1;"/></g><g class="points"><path class="point" transform="translate(161.5,166.82)" d="M3,0A3,3 0 1,1 0,-3A3,3 0 0,1 3,0Z" style="opacity: 1; stroke-width: 0px; fill: rgb(99, 110, 250); fill-opacity: 1;"/><path class="point" transform="translate(161.5,165.19)" d="M3,0A3,3 0 1,1 0,-3A3,3 0 0,1 3,0Z" style="opacity: 1; stroke-width: 0px; fill: rgb(99, 110, 250); fill-opacity: 1;"/><path class="point" transform="translate(161.5,164.79)" d="M3,0A3,3 0 1,1 0,-3A3,3 0 0,1 3,0Z" style="opacity: 1; stroke-width: 0px; fill: rgb(99, 110, 250); fill-opacity: 1;"/><path class="point" transform="translate(161.5,157.64)" d="M3,0A3,3 0 1,1 0,-3A3,3 0 0,1 3,0Z" style="opacity: 1; stroke-width: 0px; fill: rgb(99, 110, 250); fill-opacity: 1;"/><path class="point" transform="translate(161.5,150.31)" d="M3,0A3,3 0 1,1 0,-3A3,3 0 0,1 3,0Z" style="opacity: 1; stroke-width: 0px; fill: rgb(99, 110, 250); fill-opacity: 1;"/></g><g class="points"/><g class="points"/><g class="points"/><g class="points"><path class="point" transform="translate(229.5,174.36)" d="M3,0A3,3 0 1,1 0,-3A3,3 0 0,1 3,0Z" style="opacity: 1; stroke-width: 0px; fill: rgb(99, 110, 250); fill-opacity: 1;"/></g><g class="points"><path class="point" transform="translate(246.5,160.45)" d="M3,0A3,3 0 1,1 0,-3A3,3 0 0,1 3,0Z" style="opacity: 1; stroke-width: 0px; fill: rgb(99, 110, 250); fill-opacity: 1;"/><path class="point" transform="translate(246.5,152.31)" d="M3,0A3,3 0 1,1 0,-3A3,3 0 0,1 3,0Z" style="opacity: 1; stroke-width: 0px; fill: rgb(99, 110, 250); fill-opacity: 1;"/><path class="point" transform="translate(246.5,151.19)" d="M3,0A3,3 0 1,1 0,-3A3,3 0 0,1 3,0Z" style="opacity: 1; stroke-width: 0px; fill: rgb(99, 110, 250); fill-opacity: 1;"/><path class="point" transform="translate(246.5,145.65)" d="M3,0A3,3 0 1,1 0,-3A3,3 0 0,1 3,0Z" style="opacity: 1; stroke-width: 0px; fill: rgb(99, 110, 250); fill-opacity: 1;"/><path class="point" transform="translate(246.5,136.36)" d="M3,0A3,3 0 1,1 0,-3A3,3 0 0,1 3,0Z" style="opacity: 1; stroke-width: 0px; fill: rgb(99, 110, 250); fill-opacity: 1;"/></g><g class="points"><path class="point" transform="translate(263.5,165.77)" d="M3,0A3,3 0 1,1 0,-3A3,3 0 0,1 3,0Z" style="opacity: 1; stroke-width: 0px; fill: rgb(99, 110, 250); fill-opacity: 1;"/><path class="point" transform="translate(263.5,165.67)" d="M3,0A3,3 0 1,1 0,-3A3,3 0 0,1 3,0Z" style="opacity: 1; stroke-width: 0px; fill: rgb(99, 110, 250); fill-opacity: 1;"/><path class="point" transform="translate(263.5,165.64)" d="M3,0A3,3 0 1,1 0,-3A3,3 0 0,1 3,0Z" style="opacity: 1; stroke-width: 0px; fill: rgb(99, 110, 250); fill-opacity: 1;"/><path class="point" transform="translate(263.5,165.49)" d="M3,0A3,3 0 1,1 0,-3A3,3 0 0,1 3,0Z" style="opacity: 1; stroke-width: 0px; fill: rgb(99, 110, 250); fill-opacity: 1;"/><path class="point" transform="translate(263.5,161.13)" d="M3,0A3,3 0 1,1 0,-3A3,3 0 0,1 3,0Z" style="opacity: 1; stroke-width: 0px; fill: rgb(99, 110, 250); fill-opacity: 1;"/><path class="point" transform="translate(263.5,158.13)" d="M3,0A3,3 0 1,1 0,-3A3,3 0 0,1 3,0Z" style="opacity: 1; stroke-width: 0px; fill: rgb(99, 110, 250); fill-opacity: 1;"/><path class="point" transform="translate(263.5,157.55)" d="M3,0A3,3 0 1,1 0,-3A3,3 0 0,1 3,0Z" style="opacity: 1; stroke-width: 0px; fill: rgb(99, 110, 250); fill-opacity: 1;"/></g><g class="points"><path class="point" transform="translate(280.5,170.62)" d="M3,0A3,3 0 1,1 0,-3A3,3 0 0,1 3,0Z" style="opacity: 1; stroke-width: 0px; fill: rgb(99, 110, 250); fill-opacity: 1;"/><path class="point" transform="translate(280.5,161.64)" d="M3,0A3,3 0 1,1 0,-3A3,3 0 0,1 3,0Z" style="opacity: 1; stroke-width: 0px; fill: rgb(99, 110, 250); fill-opacity: 1;"/><path class="point" transform="translate(280.5,159.15)" d="M3,0A3,3 0 1,1 0,-3A3,3 0 0,1 3,0Z" style="opacity: 1; stroke-width: 0px; fill: rgb(99, 110, 250); fill-opacity: 1;"/><path class="point" transform="translate(280.5,153.28)" d="M3,0A3,3 0 1,1 0,-3A3,3 0 0,1 3,0Z" style="opacity: 1; stroke-width: 0px; fill: rgb(99, 110, 250); fill-opacity: 1;"/></g><g class="points"/><g class="points"/><g class="points"><path class="point" transform="translate(331.5,175.51)" d="M3,0A3,3 0 1,1 0,-3A3,3 0 0,1 3,0Z" style="opacity: 1; stroke-width: 0px; fill: rgb(99, 110, 250); fill-opacity: 1;"/></g></g></g></g><g class="overplot"/><path class="xlines-above crisp" d="M0,0" style="fill: none;"/><path class="ylines-above crisp" d="M0,0" style="fill: none;"/><g class="overlines-above"/><g class="xaxislayer-above"><g class="xtick"><text text-anchor="start" x="0" y="261" transform="translate(88.5,0) rotate(90,0,255)" style="font-family: 'CMU Sans Serif'; font-size: 12px; fill: rgb(0, 0, 0); fill-opacity: 1; white-space: pre; opacity: 1;">traceID_1</text></g><g class="xtick"><text text-anchor="start" x="0" y="261" transform="translate(105.5,0) rotate(90,0,255)" style="font-family: 'CMU Sans Serif'; font-size: 12px; fill: rgb(0, 0, 0); fill-opacity: 1; white-space: pre; opacity: 1;">traceID_2</text></g><g class="xtick"><text text-anchor="start" x="0" y="261" transform="translate(122.5,0) rotate(90,0,255)" style="font-family: 'CMU Sans Serif'; font-size: 12px; fill: rgb(0, 0, 0); fill-opacity: 1; white-space: pre; opacity: 1;">traceID_3</text></g><g class="xtick"><text text-anchor="start" x="0" y="261" transform="translate(139.5,0) rotate(90,0,255)" style="font-family: 'CMU Sans Serif'; font-size: 12px; fill: rgb(0, 0, 0); fill-opacity: 1; white-space: pre; opacity: 1;">traceID_4</text></g><g class="xtick"><text text-anchor="start" x="0" y="261" transform="translate(156.5,0) rotate(90,0,255)" style="font-family: 'CMU Sans Serif'; font-size: 12px; fill: rgb(0, 0, 0); fill-opacity: 1; white-space: pre; opacity: 1;">traceID_5</text></g><g class="xtick"><text text-anchor="start" x="0" y="261" transform="translate(173.5,0) rotate(90,0,255)" style="font-family: 'CMU Sans Serif'; font-size: 12px; fill: rgb(0, 0, 0); fill-opacity: 1; white-space: pre; opacity: 1;">traceID_6</text></g><g class="xtick"><text text-anchor="start" x="0" y="261" transform="translate(190.5,0) rotate(90,0,255)" style="font-family: 'CMU Sans Serif'; font-size: 12px; fill: rgb(0, 0, 0); fill-opacity: 1; white-space: pre; opacity: 1;">traceID_7</text></g><g class="xtick"><text text-anchor="start" x="0" y="261" transform="translate(207.5,0) rotate(90,0,255)" style="font-family: 'CMU Sans Serif'; font-size: 12px; fill: rgb(0, 0, 0); fill-opacity: 1; white-space: pre; opacity: 1;">traceID_8</text></g><g class="xtick"><text text-anchor="start" x="0" y="261" transform="translate(224.5,0) rotate(90,0,255)" style="font-family: 'CMU Sans Serif'; font-size: 12px; fill: rgb(0, 0, 0); fill-opacity: 1; white-space: pre; opacity: 1;">traceID_9</text></g><g class="xtick"><text text-anchor="start" x="0" y="261" transform="translate(241.5,0) rotate(90,0,255)" style="font-family: 'CMU Sans Serif'; font-size: 12px; fill: rgb(0, 0, 0); fill-opacity: 1; white-space: pre; opacity: 1;">traceID_10</text></g><g class="xtick"><text text-anchor="start" x="0" y="261" transform="translate(258.5,0) rotate(90,0,255)" style="font-family: 'CMU Sans Serif'; font-size: 12px; fill: rgb(0, 0, 0); fill-opacity: 1; white-space: pre; opacity: 1;">traceID_11</text></g><g class="xtick"><text text-anchor="start" x="0" y="261" transform="translate(275.5,0) rotate(90,0,255)" style="font-family: 'CMU Sans Serif'; font-size: 12px; fill: rgb(0, 0, 0); fill-opacity: 1; white-space: pre; opacity: 1;">traceID_12</text></g><g class="xtick"><text text-anchor="start" x="0" y="261" transform="translate(292.5,0) rotate(90,0,255)" style="font-family: 'CMU Sans Serif'; font-size: 12px; fill: rgb(0, 0, 0); fill-opacity: 1; white-space: pre; opacity: 1;">traceID_13</text></g><g class="xtick"><text text-anchor="start" x="0" y="261" transform="translate(309.5,0) rotate(90,0,255)" style="font-family: 'CMU Sans Serif'; font-size: 12px; fill: rgb(0, 0, 0); fill-opacity: 1; white-space: pre; opacity: 1;">traceID_14</text></g><g class="xtick"><text text-anchor="start" x="0" y="261" transform="translate(326.5,0) rotate(90,0,255)" style="font-family: 'CMU Sans Serif'; font-size: 12px; fill: rgb(0, 0, 0); fill-opacity: 1; white-space: pre; opacity: 1;">traceID_15</text></g><g class="xtick"><text text-anchor="start" x="0" y="261" transform="translate(343.5,0) rotate(90,0,255)" style="font-family: 'CMU Sans Serif'; font-size: 12px; fill: rgb(0, 0, 0); fill-opacity: 1; white-space: pre; opacity: 1;">traceID_16</text></g><g class="xtick"><text text-anchor="start" x="0" y="261" transform="translate(360.5,0) rotate(90,0,255)" style="font-family: 'CMU Sans Serif'; font-size: 12px; fill: rgb(0, 0, 0); fill-opacity: 1; white-space: pre; opacity: 1;">traceID_17</text></g><g class="xtick"><text text-anchor="start" x="0" y="261" transform="translate(377.5,0) rotate(90,0,255)" style="font-family: 'CMU Sans Serif'; font-size: 12px; fill: rgb(0, 0, 0); fill-opacity: 1; white-space: pre; opacity: 1;">traceID_18</text></g><g class="xtick"><text text-anchor="start" x="0" y="261" transform="translate(394.5,0) rotate(90,0,255)" style="font-family: 'CMU Sans Serif'; font-size: 12px; fill: rgb(0, 0, 0); fill-opacity: 1; white-space: pre; opacity: 1;">traceID_19</text></g><g class="xtick"><text text-anchor="start" x="0" y="261" transform="translate(411.5,0) rotate(90,0,255)" style="font-family: 'CMU Sans Serif'; font-size: 12px; fill: rgb(0, 0, 0); fill-opacity: 1; white-space: pre; opacity: 1;">traceID_20</text></g></g><g class="yaxislayer-above"><g class="ytick"><text text-anchor="end" x="79" y="4.199999999999999" transform="translate(0,238.6)" style="font-family: 'CMU Sans Serif'; font-size: 12px; fill: rgb(0, 0, 0); fill-opacity: 1; white-space: pre; opacity: 1;">0</text></g><g class="ytick"><text text-anchor="end" x="79" y="4.199999999999999" style="font-family: 'CMU Sans Serif'; font-size: 12px; fill: rgb(0, 0, 0); fill-opacity: 1; white-space: pre; opacity: 1;" transform="translate(0,175.64)">0.2</text></g><g class="ytick"><text text-anchor="end" x="79" y="4.199999999999999" style="font-family: 'CMU Sans Serif'; font-size: 12px; fill: rgb(0, 0, 0); fill-opacity: 1; white-space: pre; opacity: 1;" transform="translate(0,112.68)">0.4</text></g></g><g class="overaxes-above"/></g></g><g class="polarlayer"/><g class="smithlayer"/><g class="ternarylayer"/><g class="geolayer"/><g class="funnelarealayer"/><g class="pielayer"/><g class="iciclelayer"/><g class="treemaplayer"/><g class="sunburstlayer"/><g class="glimages"/><defs id="topdefs-a2c3a1"><g class="clips"/></defs><g class="layer-above"><g class="imagelayer"/><g class="shapelayer"/></g><g class="infolayer"><g class="g-gtitle"/><g class="g-xtitle"/><g class="g-ytitle"><text class="ytitle" transform="rotate(-90,39.35625,154)" x="39.35625" y="154" text-anchor="middle" style="font-family: 'CMU Sans Serif'; font-size: 14px; fill: rgb(0, 0, 0); opacity: 1; font-weight: normal; white-space: pre;">counting impact (more is better)</text></g></g></svg>